<?xml version="1.0" encoding="UTF-8" standalone="no"?>
<svg
   version="1.1"
   viewBox="0 0 819.99854 216.58972"
   fill="none"
   stroke="none"
   stroke-linecap="square"
   stroke-miterlimit="10"
   id="svg6"
   sodipodi:docname="cloud.svg"
   width="819.99854"
   height="216.58972"
   inkscape:version="1.4 (e7c3feb100, 2024-10-09)"
   xmlns:inkscape="http://www.inkscape.org/namespaces/inkscape"
   xmlns:sodipodi="http://sodipodi.sourceforge.net/DTD/sodipodi-0.dtd"
   xmlns="http://www.w3.org/2000/svg"
   xmlns:svg="http://www.w3.org/2000/svg">
  <defs
     id="defs6" />
  <sodipodi:namedview
     id="namedview6"
     pagecolor="#ffffff"
     bordercolor="#000000"
     borderopacity="0.25"
     inkscape:showpageshadow="2"
     inkscape:pageopacity="0.0"
     inkscape:pagecheckerboard="0"
     inkscape:deskcolor="#d1d1d1"
     inkscape:zoom="1.2592593"
     inkscape:cx="187.80882"
     inkscape:cy="268.41176"
     inkscape:window-width="1504"
     inkscape:window-height="931"
     inkscape:window-x="0"
     inkscape:window-y="0"
     inkscape:window-maximized="1"
     inkscape:current-layer="svg6" />
  <clipPath
     id="p.0">
    <path
       d="M 0,0 H 960 V 540 H 0 Z"
       clip-rule="nonzero"
       id="path1" />
  </clipPath>
  <g
     clip-path="url(#p.0)"
     id="g6"
     transform="translate(-108.14937,-199.07309)">
    <path
       fill="#eeeeee"
       d="m 183.17014,270.55545 v 0 c -6.59489,-17.38341 15.05745,-34.59192 55.76913,-44.32335 40.71171,-9.73142 93.34281,-10.27905 135.55997,-1.41054 v 0 c 14.95462,-10.10743 42.32593,-17.08592 73.83463,-18.8246 31.50873,-1.73868 63.45401,1.96666 86.1731,9.99523 v 0 c 12.73938,-9.16405 37.75341,-15.32112 66.16583,-16.28637 28.41241,-0.96524 56.20208,3.39795 73.50787,11.54129 v 0 c 23.01562,-9.71386 59.63403,-13.80381 94.01025,-10.50009 34.37622,3.30373 60.33594,13.40773 66.6463,25.93997 v 0 c 28.198,2.75878 51.68634,9.77196 64.39642,19.22757 12.71002,9.4556 13.39496,20.42604 1.87781,30.07692 v 0 c 27.76684,12.96222 34.2622,30.23417 17.06213,45.37033 -17.20007,15.13614 -55.51141,25.86243 -100.63696,28.17603 -0.31805,14.20581 -22.03912,27.24091 -56.79101,34.08096 -34.75183,6.84006 -77.10779,6.41699 -110.74213,-1.10611 v 0 c -14.32642,17.01392 -54.65052,29.5326 -103.55078,32.14752 -48.90024,2.6149 -97.61035,-5.14273 -125.08573,-19.92135 v 0 c -33.67905,7.28442 -74.09112,9.38284 -112.12005,5.82187 -38.02896,-3.56095 -70.47138,-12.48133 -90.00894,-24.74884 v 0 c -34.41577,1.44455 -67.69107,-4.95105 -83.31148,-16.01264 -15.62041,-11.06158 -10.26072,-24.43444 13.41906,-33.48166 v 0 c -30.69976,-6.48101 -46.36462,-19.34146 -38.82599,-31.87512 7.53865,-12.53369 36.5725,-21.90042 71.96156,-23.21582 z"
       fill-rule="evenodd"
       id="path3" />
    <path
       fill="#000000"
       fill-opacity="0"
       d="m 149.35426,326.31635 v 0 c 14.4873,3.05841 31.22356,4.44577 47.96161,3.97583 m 21.92326,45.51959 c 7.19799,-0.30212 14.25336,-0.94189 20.98421,-1.90283 m 181.13472,20.82901 c -5.06259,-2.72308 -9.30124,-5.63297 -12.64377,-8.67999 m 241.28906,-3.5467 v 0 c 2.61188,-3.10189 4.3042,-6.2944 5.04865,-9.52429 M 817.53009,349.5376 c 0.33868,-15.1243 -23.61103,-28.97223 -61.56189,-35.59576 m 145.13599,-37.94898 c -6.14606,5.15009 -15.52863,9.71869 -27.41211,13.34754 M 834.83569,226.687 v 0 c 1.04718,2.07973 1.5318,4.19072 1.44721,6.3037 M 674.18189,211.24775 v 0 c -5.74127,2.42312 -10.47131,5.13093 -14.04285,8.03912 m -125.63226,-3.29511 v 0 c -3.05957,2.2009 -5.34424,4.52985 -6.80145,6.93317 m -153.20856,1.89639 v 0 c 8.93313,1.87658 17.19748,4.13523 24.61151,6.72635 m -215.93814,39.00778 v 0 c 0.90894,2.39588 2.34512,4.76221 4.2951,7.07688"
       fill-rule="evenodd"
       id="path4" />
    <path
       stroke="#595959"
       stroke-width="1"
       stroke-linejoin="round"
       stroke-linecap="butt"
       d="m 183.17014,270.55545 v 0 c -6.59489,-17.38341 15.05745,-34.59192 55.76913,-44.32335 40.71171,-9.73142 93.34281,-10.27905 135.55997,-1.41054 v 0 c 14.95462,-10.10743 42.32593,-17.08592 73.83463,-18.8246 31.50873,-1.73868 63.45401,1.96666 86.1731,9.99523 v 0 c 12.73938,-9.16405 37.75341,-15.32112 66.16583,-16.28637 28.41241,-0.96524 56.20208,3.39795 73.50787,11.54129 v 0 c 23.01562,-9.71386 59.63403,-13.80381 94.01025,-10.50009 34.37622,3.30373 60.33594,13.40773 66.6463,25.93997 v 0 c 28.198,2.75878 51.68634,9.77196 64.39642,19.22757 12.71002,9.4556 13.39496,20.42604 1.87781,30.07692 v 0 c 27.76684,12.96222 34.2622,30.23417 17.06213,45.37033 -17.20007,15.13614 -55.51141,25.86243 -100.63696,28.17603 -0.31805,14.20581 -22.03912,27.24091 -56.79101,34.08096 -34.75183,6.84006 -77.10779,6.41699 -110.74213,-1.10611 v 0 c -14.32642,17.01392 -54.65052,29.5326 -103.55078,32.14752 -48.90024,2.6149 -97.61035,-5.14273 -125.08573,-19.92135 v 0 c -33.67905,7.28442 -74.09112,9.38284 -112.12005,5.82187 -38.02896,-3.56095 -70.47138,-12.48133 -90.00894,-24.74884 v 0 c -34.41577,1.44455 -67.69107,-4.95105 -83.31148,-16.01264 -15.62041,-11.06158 -10.26072,-24.43444 13.41906,-33.48166 v 0 c -30.69976,-6.48101 -46.36462,-19.34146 -38.82599,-31.87512 7.53865,-12.53369 36.5725,-21.90042 71.96156,-23.21582 z"
       fill-rule="evenodd"
       id="path5" />
    <path
       stroke="#595959"
       stroke-width="1"
       stroke-linejoin="round"
       stroke-linecap="butt"
       d="m 149.35426,326.31635 v 0 c 14.4873,3.05841 31.22356,4.44577 47.96161,3.97583 m 21.92326,45.51959 c 7.19799,-0.30212 14.25336,-0.94189 20.98421,-1.90283 m 181.13472,20.82901 c -5.06259,-2.72308 -9.30124,-5.63297 -12.64377,-8.67999 m 241.28906,-3.5467 v 0 c 2.61188,-3.10189 4.3042,-6.2944 5.04865,-9.52429 M 817.53009,349.5376 c 0.33868,-15.1243 -23.61103,-28.97223 -61.56189,-35.59576 m 145.13599,-37.94898 c -6.14606,5.15009 -15.52863,9.71869 -27.41211,13.34754 M 834.83569,226.687 v 0 c 1.04718,2.07973 1.5318,4.19072 1.44721,6.3037 M 674.18189,211.24775 v 0 c -5.74127,2.42312 -10.47131,5.13093 -14.04285,8.03912 m -125.63226,-3.29511 v 0 c -3.05957,2.2009 -5.34424,4.52985 -6.80145,6.93317 m -153.20856,1.89639 v 0 c 8.93313,1.87658 17.19748,4.13523 24.61151,6.72635 m -215.93814,39.00778 v 0 c 0.90894,2.39588 2.34512,4.76221 4.2951,7.07688"
       fill-rule="evenodd"
       id="path6" />
  </g>
</svg>
