<?xml version="1.0" encoding="UTF-8" standalone="no"?>
<svg
   width="175.4646"
   height="173.32288"
   version="1.1"
   id="svg1"
   sodipodi:docname="proof-scroll-ic.svg"
   inkscape:version="1.4 (e7c3feb100, 2024-10-09)"
   xmlns:inkscape="http://www.inkscape.org/namespaces/inkscape"
   xmlns:sodipodi="http://sodipodi.sourceforge.net/DTD/sodipodi-0.dtd"
   xmlns="http://www.w3.org/2000/svg"
   xmlns:svg="http://www.w3.org/2000/svg">
  <sodipodi:namedview
     id="namedview1"
     pagecolor="#ffffff"
     bordercolor="#000000"
     borderopacity="0.25"
     inkscape:showpageshadow="2"
     inkscape:pageopacity="0.0"
     inkscape:pagecheckerboard="0"
     inkscape:deskcolor="#d1d1d1"
     inkscape:zoom="2.72"
     inkscape:cx="101.47059"
     inkscape:cy="89.338235"
     inkscape:window-width="1496"
     inkscape:window-height="951"
     inkscape:window-x="0"
     inkscape:window-y="0"
     inkscape:window-maximized="1"
     inkscape:current-layer="svg1" />
  <use
     transform="matrix(4,0,0,4,-23.40672,-35.54132)"
     href="#scroll"
     id="use1" />
  <defs
     id="defs1">
    <g
       id="scroll">
      <path
         fill="#f1c232"
         d="m 8.99734,51.71606 c 1.46115,0 2.64566,-1.18451 2.64566,-2.64569 H 8.99734 c 0.73059,0 1.32281,-0.59226 1.32281,-1.32282 0,-0.73059 -0.59222,-1.32284 -1.32281,-1.32284 H 11.643 V 12.031 v 0 c 0,-1.46115 1.18451,-2.64566 2.64569,-2.64566 h 32.28345 c 1.46118,0 2.64569,1.18451 2.64569,2.64566 0,1.46118 -1.18451,2.64569 -2.64569,2.64569 h -2.64569 v 34.39368 c 0,1.46118 -1.18451,2.64569 -2.64563,2.64569 z M 16.93432,12.031 v 0 c 0,1.46118 -1.18451,2.64569 -2.64563,2.64569 -0.73059,0 -1.32287,-0.59225 -1.32287,-1.32284 0,-0.7306 0.59228,-1.32285 1.32287,-1.32285 z"
         fill-rule="evenodd"
         id="path2"
         style="display:inline" />
      <path
         fill="#bf920d"
         d="m 16.9343,12.031 v 0 c 0,1.46118 -1.18451,2.64569 -2.64563,2.64569 -0.73059,0 -1.32288,-0.59225 -1.32288,-1.32284 0,-0.7306 0.59229,-1.32285 1.32288,-1.32285 z m -5.29132,37.03937 c 0,1.46118 -1.18451,2.64569 -2.64566,2.64569 -1.46118,0 -2.64566,-1.18451 -2.64566,-2.64569 0,-1.46115 1.18448,-2.64566 2.64566,-2.64566 v 0 c 0.73059,0 1.32281,0.59225 1.32281,1.32284 0,0.73056 -0.59222,1.32282 -1.32281,1.32282 z"
         fill-rule="evenodd"
         id="path3"
         style="display:inline" />
      <path
         fill="none"
         stroke="#666666"
         stroke-width="1"
         stroke-linejoin="round"
         stroke-linecap="butt"
         d="m 11.643,46.4247 v -34.39371 0 c 0,-1.46115 1.18451,-2.64566 2.64569,-2.64566 h 32.28345 c 1.46118,0 2.64569,1.18451 2.64569,2.64566 0,1.46118 -1.18451,2.64569 -2.64569,2.64569 h -2.64569 v 34.39368 c 0,1.46118 -1.18451,2.64569 -2.64563,2.64569 H 8.99734 c -1.46118,0 -2.64566,-1.18451 -2.64566,-2.64569 0,-1.46115 1.18448,-2.64566 2.64566,-2.64566 z M 14.28869,9.38533 v 0 c 1.46112,0 2.64563,1.18451 2.64563,2.64566 0,1.46118 -1.18451,2.64569 -2.64563,2.64569 -0.73059,0 -1.32287,-0.59225 -1.32287,-1.32284 0,-0.73059 0.59228,-1.32285 1.32287,-1.32285 h 2.64563 m 26.99213,2.64569 H 14.28869 M 8.99734,46.4247 v 0 c 0.73059,0 1.32281,0.59225 1.32281,1.32284 0,0.73057 -0.59222,1.32282 -1.32281,1.32282 H 11.643 m -2.64566,2.64569 c 1.46115,0 2.64566,-1.18451 2.64566,-2.64569 V 46.4247"
         fill-rule="evenodd"
         id="path5"
         style="display:inline" />
    </g>
  </defs>
</svg>
