<?xml version="1.0" encoding="UTF-8" standalone="no"?>
<svg
   version="1.1"
   viewBox="0 0 548.59082 309.71808"
   fill="none"
   stroke="none"
   stroke-linecap="square"
   stroke-miterlimit="10"
   id="svg12"
   sodipodi:docname="speechbubble.svg"
   width="548.59082"
   height="309.71808"
   inkscape:version="1.4 (e7c3feb100, 2024-10-09)"
   xmlns:inkscape="http://www.inkscape.org/namespaces/inkscape"
   xmlns:sodipodi="http://sodipodi.sourceforge.net/DTD/sodipodi-0.dtd"
   xmlns="http://www.w3.org/2000/svg"
   xmlns:svg="http://www.w3.org/2000/svg">
  <defs
     id="defs12" />
  <sodipodi:namedview
     id="namedview12"
     pagecolor="#ffffff"
     bordercolor="#000000"
     borderopacity="0.25"
     inkscape:showpageshadow="2"
     inkscape:pageopacity="0.0"
     inkscape:pagecheckerboard="0"
     inkscape:deskcolor="#d1d1d1"
     inkscape:zoom="1.2592593"
     inkscape:cx="328.36765"
     inkscape:cy="249.35294"
     inkscape:window-width="1496"
     inkscape:window-height="951"
     inkscape:window-x="0"
     inkscape:window-y="0"
     inkscape:window-maximized="1"
     inkscape:current-layer="svg12" />
  <clipPath
     id="p.0">
    <path
       d="M 0,0 H 960 V 540 H 0 Z"
       clip-rule="nonzero"
       id="path1" />
  </clipPath>
  <g
     clip-path="url(#p.0)"
     id="g12"
     transform="translate(-151.62738,-20.499472)">
    <path
       fill="#d9d9d9"
       d="m 306.78812,119.13451 c -3.4808,-24.032566 7.94702,-47.823406 29.43426,-61.277236 21.48725,-13.453827 49.26554,-14.211155 71.54758,-1.950615 v 0 c 7.89258,-13.974522 22.33875,-23.623009 38.96866,-26.026852 16.62989,-2.403839 33.49021,2.719322 45.48075,13.819756 v 0 c 6.72363,-12.669977 19.92584,-21.18261 34.92169,-22.517107 14.99591,-1.334497 29.66308,4.698008 38.79681,15.956823 v 0 c 12.14752,-13.429365 31.47443,-19.083626 49.61786,-14.51617 18.14337,4.567455 31.84473,18.536278 35.17529,35.862133 v 0 c 14.88208,3.814071 27.27857,13.509808 33.98658,26.582165 6.708,13.072357 7.06952,28.238983 0.99121,41.581363 14.65564,17.9202 18.0841,41.79892 9.00604,62.72489 -9.07812,20.92596 -29.29889,35.75525 -53.11621,38.9537 -0.16785,19.64044 -11.63196,37.66223 -29.97339,47.11887 -18.34137,9.45666 -40.69604,8.87143 -58.44733,-1.53012 -7.56121,23.52276 -28.84393,40.83059 -54.65307,44.4458 -25.80918,3.6152 -51.51792,-7.11029 -66.01898,-27.54267 v 0 c -17.77518,10.07102 -39.10404,12.9722 -59.17508,8.04907 -20.07105,-4.92312 -37.19361,-17.25586 -47.5051,-34.21612 v 0 c -18.16388,1.99716 -35.72589,-6.84482 -43.97012,-22.13771 -8.24423,-15.29291 -5.41571,-33.78128 7.08179,-46.28946 v 0 c -16.20353,-8.96028 -24.47159,-26.74052 -20.49268,-44.06902 3.97891,-17.32849 19.30316,-30.27852 37.98169,-32.09712 z"
       fill-rule="evenodd"
       id="path3" />
    <path
       fill="#d9d9d9"
       d="m 168.7258,321.41837 c 0,4.58353 -3.71568,8.29919 -8.29921,8.29919 -4.58353,0 -8.29921,-3.71566 -8.29921,-8.29919 0,-4.58353 3.71568,-8.29923 8.29921,-8.29923 4.58353,0 8.29921,3.7157 8.29921,8.29923 z"
       fill-rule="evenodd"
       id="path4" />
    <path
       fill="#d9d9d9"
       d="m 220.30322,301.1049 c 0,9.16705 -7.43138,16.59842 -16.59843,16.59842 -9.16706,0 -16.59842,-7.43137 -16.59842,-16.59842 0,-9.16705 7.43136,-16.59842 16.59842,-16.59842 9.16705,0 16.59843,7.43137 16.59843,16.59842 z"
       fill-rule="evenodd"
       id="path5" />
    <path
       fill="#d9d9d9"
       d="m 286.90625,273.73886 c 0,13.75058 -11.14706,24.89764 -24.89764,24.89764 -13.75058,0 -24.89765,-11.14706 -24.89765,-24.89764 0,-13.75058 11.14707,-24.89764 24.89765,-24.89764 13.75058,0 24.89764,11.14706 24.89764,24.89764 z"
       fill-rule="evenodd"
       id="path6" />
    <path
       fill="#000000"
       fill-opacity="0"
       d="m 314.71402,200.56224 v 0 c -8.83435,0.64972 -17.66776,-1.26836 -25.31418,-5.4967 m 47.64893,65.6494 c -3.55249,1.32858 -7.27625,2.21313 -11.07529,2.63082 m 106.50742,26.27283 v 0 c -2.67191,-3.76477 -4.90897,-7.78778 -6.67304,-12.00043 m 130.07861,-17.92404 c -0.39288,4.4654 -1.28601,8.87912 -2.66455,13.16754 m 55.64594,-94.52554 v 0 c 20.02893,9.15752 32.66851,28.30269 32.4898,49.21237 m 44.14667,-101.62688 c -3.24365,7.12005 -8.19543,13.43615 -14.46716,18.4531 M 650.78833,57.450617 v 0 c 0.55267,2.875294 0.80847,5.793801 0.76385,8.715073 M 558.39373,47.284915 v 0 c 1.88507,-4.020618 4.38159,-7.764209 7.41187,-11.114208 m -76.73209,16.409935 v 0 c 0.76904,-3.322651 1.97482,-6.542473 3.58957,-9.585297 m -84.94482,12.841908 v 0 c 4.71484,2.594315 9.07675,5.716858 12.98983,9.299042 M 309.0573,128.92177 v 0 c -1.02923,-3.20008 -1.78729,-6.47163 -2.26702,-9.78402"
       fill-rule="evenodd"
       id="path7" />
    <path
       stroke="#b7b7b7"
       stroke-width="1"
       stroke-linejoin="round"
       stroke-linecap="butt"
       d="m 306.78812,119.13451 c -3.4808,-24.032566 7.94702,-47.823406 29.43426,-61.277236 21.48725,-13.453827 49.26554,-14.211155 71.54758,-1.950615 v 0 c 7.89258,-13.974522 22.33875,-23.623009 38.96866,-26.026852 16.62989,-2.403839 33.49021,2.719322 45.48075,13.819756 v 0 c 6.72363,-12.669977 19.92584,-21.18261 34.92169,-22.517107 14.99591,-1.334497 29.66308,4.698008 38.79681,15.956823 v 0 c 12.14752,-13.429365 31.47443,-19.083626 49.61786,-14.51617 18.14337,4.567455 31.84473,18.536278 35.17529,35.862133 v 0 c 14.88208,3.814071 27.27857,13.509808 33.98658,26.582165 6.708,13.072357 7.06952,28.238983 0.99121,41.581363 14.65564,17.9202 18.0841,41.79892 9.00604,62.72489 -9.07812,20.92596 -29.29889,35.75525 -53.11621,38.9537 -0.16785,19.64044 -11.63196,37.66223 -29.97339,47.11887 -18.34137,9.45666 -40.69604,8.87143 -58.44733,-1.53012 -7.56121,23.52276 -28.84393,40.83059 -54.65307,44.4458 -25.80918,3.6152 -51.51792,-7.11029 -66.01898,-27.54267 v 0 c -17.77518,10.07102 -39.10404,12.9722 -59.17508,8.04907 -20.07105,-4.92312 -37.19361,-17.25586 -47.5051,-34.21612 v 0 c -18.16388,1.99716 -35.72589,-6.84482 -43.97012,-22.13771 -8.24423,-15.29291 -5.41571,-33.78128 7.08179,-46.28946 v 0 c -16.20353,-8.96028 -24.47159,-26.74052 -20.49268,-44.06902 3.97891,-17.32849 19.30316,-30.27852 37.98169,-32.09712 z"
       fill-rule="evenodd"
       id="path8" />
    <path
       stroke="#b7b7b7"
       stroke-width="1"
       stroke-linejoin="round"
       stroke-linecap="butt"
       d="m 168.7258,321.41837 c 0,4.58353 -3.71568,8.29919 -8.29921,8.29919 -4.58353,0 -8.29921,-3.71566 -8.29921,-8.29919 0,-4.58353 3.71568,-8.29923 8.29921,-8.29923 4.58353,0 8.29921,3.7157 8.29921,8.29923 z"
       fill-rule="evenodd"
       id="path9" />
    <path
       stroke="#b7b7b7"
       stroke-width="1"
       stroke-linejoin="round"
       stroke-linecap="butt"
       d="m 220.30322,301.1049 c 0,9.16705 -7.43138,16.59842 -16.59843,16.59842 -9.16706,0 -16.59842,-7.43137 -16.59842,-16.59842 0,-9.16705 7.43136,-16.59842 16.59842,-16.59842 9.16705,0 16.59843,7.43137 16.59843,16.59842 z"
       fill-rule="evenodd"
       id="path10" />
    <path
       stroke="#b7b7b7"
       stroke-width="1"
       stroke-linejoin="round"
       stroke-linecap="butt"
       d="m 286.90625,273.73886 c 0,13.75058 -11.14706,24.89764 -24.89764,24.89764 -13.75058,0 -24.89765,-11.14706 -24.89765,-24.89764 0,-13.75058 11.14707,-24.89764 24.89765,-24.89764 13.75058,0 24.89764,11.14706 24.89764,24.89764 z"
       fill-rule="evenodd"
       id="path11" />
    <path
       stroke="#b7b7b7"
       stroke-width="1"
       stroke-linejoin="round"
       stroke-linecap="butt"
       d="m 314.71402,200.56224 v 0 c -8.83435,0.64972 -17.66776,-1.26836 -25.31418,-5.4967 m 47.64893,65.6494 c -3.55249,1.32858 -7.27625,2.21313 -11.07529,2.63082 m 106.50742,26.27283 v 0 c -2.67191,-3.76477 -4.90897,-7.78778 -6.67304,-12.00043 m 130.07861,-17.92404 c -0.39288,4.4654 -1.28601,8.87912 -2.66455,13.16754 m 55.64594,-94.52554 v 0 c 20.02893,9.15752 32.66851,28.30269 32.4898,49.21237 m 44.14667,-101.62688 c -3.24365,7.12005 -8.19543,13.43615 -14.46716,18.4531 M 650.78833,57.450617 v 0 c 0.55267,2.875294 0.80847,5.793801 0.76385,8.715073 M 558.39373,47.284915 v 0 c 1.88507,-4.020618 4.38159,-7.764209 7.41187,-11.114208 m -76.73209,16.409935 v 0 c 0.76904,-3.322651 1.97482,-6.542473 3.58957,-9.585297 m -84.94482,12.841908 v 0 c 4.71484,2.594315 9.07675,5.716858 12.98983,9.299042 M 309.0573,128.92177 v 0 c -1.02923,-3.20008 -1.78729,-6.47163 -2.26702,-9.78402"
       fill-rule="evenodd"
       id="path12" />
  </g>
</svg>
