<svg xmlns="http://www.w3.org/2000/svg">
  <use transform="scale(4)" href="#scroll"/>
  <defs>
    <g id="scroll">
      <path
          fill="#fff2cc"
        d="m 8.99734,51.71606 c 1.46115,0 2.64566,-1.18451 2.64566,-2.64569 h -2.64566 c 0.73059,0 1.32281,-0.59226 1.32281,-1.32282 0,-0.73059 -0.59222,-1.32284 -1.32281,-1.32284 h 2.64566 v -34.39371 0 c 0,-1.46115 1.18451,-2.64566 2.64569,-2.64566 h 32.28345 c 1.46118,0 2.64569,1.18451 2.64569,2.64566 0,1.46118 -1.18451,2.64569 -2.64569,2.64569 h -2.64569 v 34.39368 c 0,1.46118 -1.18451,2.64569 -2.64563,2.64569 z m 7.93698,-39.68506 v 0 c 0,1.46118 -1.18451,2.64569 -2.64563,2.64569 -0.73059,0 -1.32287,-0.59225 -1.32287,-1.32284 0,-0.7306 0.59228,-1.32285 1.32287,-1.32285 z"
        fill-rule="evenodd"
        id="path2"
        style="display:inline" />
      <path
        fill="#cbc1a3"
        d="m 16.9343,12.031 v 0 c 0,1.46118 -1.18451,2.64569 -2.64563,2.64569 -0.73059,0 -1.32288,-0.59225 -1.32288,-1.32284 0,-0.7306 0.59229,-1.32285 1.32288,-1.32285 z m -5.29132,37.03937 c 0,1.46118 -1.18451,2.64569 -2.64566,2.64569 -1.46118,0 -2.64566,-1.18451 -2.64566,-2.64569 0,-1.46115 1.18448,-2.64566 2.64566,-2.64566 v 0 c 0.73059,0 1.32281,0.59225 1.32281,1.32284 0,0.73056 -0.59222,1.32282 -1.32281,1.32282 z"
        fill-rule="evenodd"
        id="path3"
        style="display:inline" />
      <path
          fill="none"
        stroke="#666666"
        stroke-width="1"
        stroke-linejoin="round"
        stroke-linecap="butt"
        d="m 11.643,46.4247 v -34.39371 0 c 0,-1.46115 1.18451,-2.64566 2.64569,-2.64566 h 32.28345 c 1.46118,0 2.64569,1.18451 2.64569,2.64566 0,1.46118 -1.18451,2.64569 -2.64569,2.64569 h -2.64569 v 34.39368 c 0,1.46118 -1.18451,2.64569 -2.64563,2.64569 h -32.28348 c -1.46118,0 -2.64566,-1.18451 -2.64566,-2.64569 0,-1.46115 1.18448,-2.64566 2.64566,-2.64566 z m 2.64569,-37.03937 v 0 c 1.46112,0 2.64563,1.18451 2.64563,2.64566 0,1.46118 -1.18451,2.64569 -2.64563,2.64569 -0.73059,0 -1.32287,-0.59225 -1.32287,-1.32284 0,-0.73059 0.59228,-1.32285 1.32287,-1.32285 h 2.64563 m 26.99213,2.64569 h -29.63776 m -5.29135,31.74802 v 0 c 0.73059,0 1.32281,0.59225 1.32281,1.32284 0,0.73057 -0.59222,1.32282 -1.32281,1.32282 h 2.64566 m -2.64566,2.64569 c 1.46115,0 2.64566,-1.18451 2.64566,-2.64569 v -2.64566"
        fill-rule="evenodd"
        id="path5"
        style="display:inline" />
    </g>
  </defs>
</svg>
