<svg xmlns="http://www.w3.org/2000/svg" width="250" height="130">
  <g transform="translate(0,-470)">
  <text x="35" y="600" font-size="20" font-family="Arial">Proof of Correctness</text>
  <use transform="translate(92,520)" href="#scroll"/>
  <use transform="translate(150,510) scale(0.1)" href="#check"/>
  <!-- Straight arrows -->
  <line x1="122" y1="470" x2="122" y2="510"
        stroke="#666666"
        stroke-width="5"
        marker-end="url(#arrowhead)"/>
  </g>

  <defs>
    <!-- Arrowhead -->
    <marker id="arrowhead"
            markerWidth="5"
            markerHeight="3"
            refX="2.5"
            refY="1.5"
            orient="auto">
      <polygon points="0 0, 5 1.5, 0 3" fill="#666666"/>
    </marker>
    <g id="scroll">
      <path
          fill="#fff2cc"
        d="m 8.99734,51.71606 c 1.46115,0 2.64566,-1.18451 2.64566,-2.64569 h -2.64566 c 0.73059,0 1.32281,-0.59226 1.32281,-1.32282 0,-0.73059 -0.59222,-1.32284 -1.32281,-1.32284 h 2.64566 v -34.39371 0 c 0,-1.46115 1.18451,-2.64566 2.64569,-2.64566 h 32.28345 c 1.46118,0 2.64569,1.18451 2.64569,2.64566 0,1.46118 -1.18451,2.64569 -2.64569,2.64569 h -2.64569 v 34.39368 c 0,1.46118 -1.18451,2.64569 -2.64563,2.64569 z m 7.93698,-39.68506 v 0 c 0,1.46118 -1.18451,2.64569 -2.64563,2.64569 -0.73059,0 -1.32287,-0.59225 -1.32287,-1.32284 0,-0.7306 0.59228,-1.32285 1.32287,-1.32285 z"
        fill-rule="evenodd"
        id="path2"
        style="display:inline" />
      <path
        fill="#cbc1a3"
        d="m 16.9343,12.031 v 0 c 0,1.46118 -1.18451,2.64569 -2.64563,2.64569 -0.73059,0 -1.32288,-0.59225 -1.32288,-1.32284 0,-0.7306 0.59229,-1.32285 1.32288,-1.32285 z m -5.29132,37.03937 c 0,1.46118 -1.18451,2.64569 -2.64566,2.64569 -1.46118,0 -2.64566,-1.18451 -2.64566,-2.64569 0,-1.46115 1.18448,-2.64566 2.64566,-2.64566 v 0 c 0.73059,0 1.32281,0.59225 1.32281,1.32284 0,0.73056 -0.59222,1.32282 -1.32281,1.32282 z"
        fill-rule="evenodd"
        id="path3"
        style="display:inline" />
      <path
          fill="none"
        stroke="#666666"
        stroke-width="1"
        stroke-linejoin="round"
        stroke-linecap="butt"
        d="m 11.643,46.4247 v -34.39371 0 c 0,-1.46115 1.18451,-2.64566 2.64569,-2.64566 h 32.28345 c 1.46118,0 2.64569,1.18451 2.64569,2.64566 0,1.46118 -1.18451,2.64569 -2.64569,2.64569 h -2.64569 v 34.39368 c 0,1.46118 -1.18451,2.64569 -2.64563,2.64569 h -32.28348 c -1.46118,0 -2.64566,-1.18451 -2.64566,-2.64569 0,-1.46115 1.18448,-2.64566 2.64566,-2.64566 z m 2.64569,-37.03937 v 0 c 1.46112,0 2.64563,1.18451 2.64563,2.64566 0,1.46118 -1.18451,2.64569 -2.64563,2.64569 -0.73059,0 -1.32287,-0.59225 -1.32287,-1.32284 0,-0.73059 0.59228,-1.32285 1.32287,-1.32285 h 2.64563 m 26.99213,2.64569 h -29.63776 m -5.29135,31.74802 v 0 c 0.73059,0 1.32281,0.59225 1.32281,1.32284 0,0.73057 -0.59222,1.32282 -1.32281,1.32282 h 2.64566 m -2.64566,2.64569 c 1.46115,0 2.64566,-1.18451 2.64566,-2.64569 v -2.64566"
        fill-rule="evenodd"
        id="path5"
        style="display:inline" />
    </g>
    <path id="check" d="m7.7,404.6c0,0 115.2,129.7 138.2,182.68l99,0c41.5-126.7 202.7-429.1 340.92-535.1c28.6-36.8-43.3-52-101.35-27.62-87.5,36.7-252.5,317.2-283.3,384.64-43.7,11.5-89.8-73.7-89.84-73.7z" fill="#181"/>
  </defs>
</svg>
