<svg xmlns="http://www.w3.org/2000/svg" viewBox="0 0 100 75">
    <clipPath id="backgroundClip">
      <rect width="100" height="75" rx="10" ry="10"/>
    </clipPath>

    <linearGradient id="fadeInOut" x1="0" x2="0" y1="0" y2="1">
      <stop offset="0%" stop-color="#00ff00" stop-opacity="0"/>
      <stop offset="45%" stop-color="#00ff00" stop-opacity="1"/>
      <stop offset="55%" stop-color="#00ff00" stop-opacity="1"/>
      <stop offset="100%" stop-color="#00ff00" stop-opacity="0"/>
    </linearGradient>
    <g id="program" clip-path="url(#backgroundClip)">
      <!-- Black background -->
      <rect width="100" height="75" fill="black" rx="10" ry="10"/>
      <!-- Columns with varied horizontal spacing -->
      <text style="fill: url(#fadeInOut);" font-family="monospace" font-size="12">
        <tspan x="0" y="10">1</tspan><tspan x="0" y="20">0</tspan><tspan x="0" y="30">1</tspan><tspan x="0" y="40">0</tspan>
      </text>

      <text style="fill: url(#fadeInOut);" font-family="monospace" font-size="12">
        <tspan x="7" y="45">0</tspan><tspan x="7" y="55">1</tspan><tspan x="7" y="65">1</tspan><tspan x="7" y="75">0</tspan>
      </text>

      <text style="fill: url(#fadeInOut);" font-family="monospace" font-size="12">
        <tspan x="12" y="5">1</tspan><tspan x="12" y="15">0</tspan><tspan x="12" y="25">1</tspan><tspan x="12" y="35">0</tspan>
      </text>

      <text style="fill: url(#fadeInOut);" font-family="monospace" font-size="12">
        <tspan x="20" y="35">1</tspan><tspan x="20" y="45">0</tspan><tspan x="20" y="55">1</tspan><tspan x="20" y="65">0</tspan>
      </text>

      <text style="fill: url(#fadeInOut);" font-family="monospace" font-size="12">
        <tspan x="24" y="15">1</tspan><tspan x="24" y="25">0</tspan><tspan x="24" y="35">1</tspan><tspan x="24" y="45">0</tspan>
      </text>

      <text style="fill: url(#fadeInOut);" font-family="monospace" font-size="12">
        <tspan x="32" y="40">0</tspan><tspan x="32" y="50">1</tspan><tspan x="32" y="60">0</tspan><tspan x="32" y="70">1</tspan>
      </text>

      <text style="fill: url(#fadeInOut);" font-family="monospace" font-size="12">
        <tspan x="40" y="8">1</tspan><tspan x="40" y="18">0</tspan><tspan x="40" y="28">1</tspan><tspan x="40" y="38">0</tspan>
      </text>

      <text style="fill: url(#fadeInOut);" font-family="monospace" font-size="12">
        <tspan x="43" y="50">1</tspan><tspan x="43" y="60">0</tspan><tspan x="43" y="70">1</tspan><tspan x="43" y="80">0</tspan>
      </text>

      <text style="fill: url(#fadeInOut);" font-family="monospace" font-size="12">
        <tspan x="50" y="25">0</tspan><tspan x="50" y="35">1</tspan><tspan x="50" y="45">0</tspan><tspan x="50" y="55">1</tspan>
      </text>

      <text style="fill: url(#fadeInOut);" font-family="monospace" font-size="12">
        <tspan x="57" y="42">1</tspan><tspan x="57" y="52">0</tspan><tspan x="57" y="62">1</tspan><tspan x="57" y="72">0</tspan>
      </text>

      <text style="fill: url(#fadeInOut);" font-family="monospace" font-size="12">
        <tspan x="61" y="3">1</tspan><tspan x="61" y="13">0</tspan><tspan x="61" y="23">1</tspan><tspan x="61" y="33">0</tspan>
      </text>

      <text style="fill: url(#fadeInOut);" font-family="monospace" font-size="12">
        <tspan x="70" y="38">0</tspan><tspan x="70" y="48">1</tspan><tspan x="70" y="58">0</tspan><tspan x="70" y="68">1</tspan>
      </text>

      <text style="fill: url(#fadeInOut);" font-family="monospace" font-size="12">
        <tspan x="74" y="12">1</tspan><tspan x="74" y="22">0</tspan><tspan x="74" y="32">1</tspan><tspan x="74" y="42">0</tspan>
      </text>

      <text style="fill: url(#fadeInOut);" font-family="monospace" font-size="12">
        <tspan x="81" y="25">1</tspan><tspan x="81" y="35">0</tspan><tspan x="81" y="45">1</tspan><tspan x="81" y="55">0</tspan>
      </text>

      <text style="fill: url(#fadeInOut);" font-family="monospace" font-size="12">
        <tspan x="87" y="15">1</tspan><tspan x="87" y="25">0</tspan><tspan x="87" y="35">1</tspan><tspan x="87" y="45">0</tspan>
      </text>

      <text style="fill: url(#fadeInOut);" font-family="monospace" font-size="12">
        <tspan x="95" y="30">1</tspan><tspan x="95" y="40">0</tspan><tspan x="95" y="50">1</tspan><tspan x="95" y="60">0</tspan>
      </text>
    </g>
</svg>